<?xml version="1.0" encoding="utf-8" ?>
<svg xmlns="http://www.w3.org/2000/svg" xmlns:xlink="http://www.w3.org/1999/xlink" width="20.0061" height="20.0066" viewBox="0 0 20.0061 20.0066">
	<path transform="matrix(1 0 0 1 1.00024 1.00061)" d="M19.0059 9.00808L19.0059 8.17981C19.0059 7.62753 18.5581 7.17981 18.0059 7.17981C17.4536 7.17981 17.0059 7.62753 17.0059 8.17981L17.0059 9.00808Q17.0051 10.3018 16.5964 11.5299Q16.1877 12.7581 15.4127 13.7947Q14.6378 14.8314 13.5755 15.5709Q12.5133 16.3104 11.272 16.6774Q10.0308 17.0444 8.73722 17.0014Q7.44361 16.9585 6.22949 16.5099Q5.01537 16.0614 4.00454 15.253Q2.99372 14.4446 2.28924 13.3588Q1.58477 12.2729 1.25848 11.0204Q0.932186 9.76789 1.01735 8.47637Q1.10251 7.18484 1.59044 5.98601Q2.07837 4.78718 2.91933 3.80326Q3.76028 2.81935 4.8685 2.15068Q5.97673 1.48202 7.23923 1.19677Q8.50174 0.911522 9.78979 1.03878Q11.0778 1.16604 12.2601 1.69283C12.7646 1.91761 13.3558 1.69087 13.5806 1.18641C13.8053 0.681937 13.5786 0.0907549 13.0741 -0.134023Q11.5964 -0.792463 9.98644 -0.951527Q8.37649 -1.11059 6.79847 -0.754058Q5.22045 -0.397527 3.83527 0.438247Q2.45009 1.27402 1.39898 2.50382Q0.347869 3.73362 -0.262002 5.23205Q-0.871872 6.73049 -0.978318 8.34477Q-1.08476 9.95906 -0.67693 11.5246Q-0.269096 13.0901 0.61143 14.4473Q1.49196 15.8045 2.7554 16.8149Q4.01884 17.8253 5.53638 18.386Q7.05392 18.9466 8.67082 19.0003Q10.2877 19.0541 11.8391 18.5954Q13.3905 18.1367 14.7182 17.2123Q16.0459 16.288 17.0146 14.9922Q17.9833 13.6965 18.4941 12.1615Q19.0049 10.6264 19.0059 9.00808Z" fill-rule="evenodd" fill="rgb(33, 37, 41)"/>
	<path transform="matrix(1 0 0 1 7.30229 2.80625)" d="M10.9963 -0.706753C11.3867 -1.09747 12.0198 -1.09779 12.4106 -0.70746C12.8013 -0.317134 12.8016 0.316037 12.4113 0.706753L3.40834 9.71868Q3.33873 9.78836 3.25686 9.84312Q3.175 9.89788 3.08402 9.93562Q2.99305 9.97335 2.89646 9.99262Q2.79987 10.0119 2.70138 10.0119Q2.60289 10.012 2.50628 9.99281Q2.40967 9.97364 2.31866 9.936Q2.22764 9.89835 2.14572 9.84368Q2.0638 9.789 1.99412 9.71939L-0.707107 7.01816C-1.09763 6.62764 -1.09763 5.99447 -0.707107 5.60394C-0.316586 5.21342 0.316586 5.21342 0.707107 5.60394L2.70052 7.59736L10.9963 -0.706753Z" fill-rule="evenodd" fill="rgb(33, 37, 41)"/>
</svg>
